<svg width="16" height="17" viewBox="0 0 16 17" fill="none" xmlns="http://www.w3.org/2000/svg">
<path d="M10 14.3333V8.99998C10 8.82317 9.92976 8.6536 9.80474 8.52857C9.67971 8.40355 9.51014 8.33331 9.33333 8.33331H6.66667C6.48986 8.33331 6.32029 8.40355 6.19526 8.52857C6.07024 8.6536 6 8.82317 6 8.99998V14.3333M2 6.99998C1.99995 6.80602 2.04222 6.61439 2.12386 6.43846C2.20549 6.26252 2.32453 6.10651 2.47267 5.98131L7.13933 1.98198C7.37999 1.77858 7.6849 1.66699 8 1.66699C8.3151 1.66699 8.62001 1.77858 8.86067 1.98198L13.5273 5.98131C13.6755 6.10651 13.7945 6.26252 13.8761 6.43846C13.9578 6.61439 14 6.80602 14 6.99998V13C14 13.3536 13.8595 13.6927 13.6095 13.9428C13.3594 14.1928 13.0203 14.3333 12.6667 14.3333H3.33333C2.97971 14.3333 2.64057 14.1928 2.39052 13.9428C2.14048 13.6927 2 13.3536 2 13V6.99998Z" stroke="black" stroke-width="1.33333" stroke-linecap="round" stroke-linejoin="round"/>
</svg>
