<svg width="16" height="17" viewBox="0 0 16 17" fill="none" xmlns="http://www.w3.org/2000/svg">
<path d="M10.6667 6.99996C10.6667 7.7072 10.3857 8.38548 9.88562 8.88558C9.38552 9.38567 8.70724 9.66663 8 9.66663C7.29276 9.66663 6.61448 9.38567 6.11438 8.88558C5.61428 8.38548 5.33333 7.7072 5.33333 6.99996M2.06867 4.35596H13.9313M2.26667 3.97796C2.09357 4.20875 2 4.48947 2 4.77796V13.6666C2 14.0202 2.14048 14.3594 2.39052 14.6094C2.64057 14.8595 2.97971 15 3.33333 15H12.6667C13.0203 15 13.3594 14.8595 13.6095 14.6094C13.8595 14.3594 14 14.0202 14 13.6666V4.77796C14 4.48947 13.9064 4.20875 13.7333 3.97796L12.4 2.19996C12.2758 2.03436 12.1148 1.89996 11.9296 1.80739C11.7445 1.71482 11.5403 1.66663 11.3333 1.66663H4.66667C4.45967 1.66663 4.25552 1.71482 4.07038 1.80739C3.88524 1.89996 3.7242 2.03436 3.6 2.19996L2.26667 3.97796Z" stroke="black" stroke-width="1.33333" stroke-linecap="round" stroke-linejoin="round"/>
</svg>
