<svg width="16" height="17" viewBox="0 0 16 17" fill="none" xmlns="http://www.w3.org/2000/svg">
<path d="M9.3335 12.3333V4.33333C9.3335 3.97971 9.19302 3.64057 8.94297 3.39052C8.69292 3.14048 8.35378 3 8.00016 3H2.66683C2.31321 3 1.97407 3.14048 1.72402 3.39052C1.47397 3.64057 1.3335 3.97971 1.3335 4.33333V11.6667C1.3335 11.8435 1.40373 12.013 1.52876 12.1381C1.65378 12.2631 1.82335 12.3333 2.00016 12.3333H3.3335M3.3335 12.3333C3.3335 13.0697 3.93045 13.6667 4.66683 13.6667C5.40321 13.6667 6.00016 13.0697 6.00016 12.3333M3.3335 12.3333C3.3335 11.597 3.93045 11 4.66683 11C5.40321 11 6.00016 11.597 6.00016 12.3333M10.0002 12.3333H6.00016M10.0002 12.3333C10.0002 13.0697 10.5971 13.6667 11.3335 13.6667C12.0699 13.6667 12.6668 13.0697 12.6668 12.3333M10.0002 12.3333C10.0002 11.597 10.5971 11 11.3335 11C12.0699 11 12.6668 11.597 12.6668 12.3333M12.6668 12.3333H14.0002C14.177 12.3333 14.3465 12.2631 14.4716 12.1381C14.5966 12.013 14.6668 11.8435 14.6668 11.6667V9.23333C14.6666 9.08204 14.6148 8.93534 14.5202 8.81733L12.2002 5.91733C12.1378 5.83925 12.0587 5.77619 11.9687 5.7328C11.8787 5.68941 11.7801 5.66681 11.6802 5.66667H9.3335" stroke="black" stroke-width="1.33333" stroke-linecap="round" stroke-linejoin="round"/>
</svg>
